<svg xmlns="http://www.w3.org/2000/svg" version="1.1" xmlns:xlink="http://www.w3.org/1999/xlink" xmlns:svgjs="http://svgjs.dev/svgjs" width="1440" height="560" preserveAspectRatio="none" viewBox="0 0 1440 560"><g mask="url(&quot;#SvgjsMask1843&quot;)" fill="none"><rect width="1440" height="560" x="0" y="0" fill="rgba(34, 51, 72, 1)"></rect><path d="M 0,112 C 72,133.2 216,213.2 360,218 C 504,222.8 576,139.6 720,136 C 864,132.4 936,207.6 1080,200 C 1224,192.4 1368,118.4 1440,98L1440 560L0 560z" fill="rgba(74, 111, 157, 1)"></path><path d="M 0,514 C 96,470 288,308.8 480,294 C 672,279.2 768,439.6 960,440 C 1152,440.4 1344,324.8 1440,296L1440 560L0 560z" fill="rgba(114, 171, 242, 1)"></path></g><defs><mask id="SvgjsMask1843"><rect width="1440" height="560" fill="#ffffff"></rect></mask></defs></svg>