<svg
  height="800"
  width="800"
  xmlns="http://www.w3.org/2000/svg"
  viewBox="0 0 512 512"><path d="M190.313 494.345a8.816 8.816 0 01-5.935-2.293 8.83 8.83 0 01-.59-12.474l35.474-39.026c32.569-35.819 50.505-82.216 50.505-130.63v-36.267c0-4.871-3.961-8.828-8.828-8.828s-8.828 3.957-8.828 8.828v32.742c0 43.69-16.095 85.638-45.323 118.103l-36.392 40.439c-3.258 3.62-8.845 3.914-12.466.655-3.625-3.258-3.918-8.845-.655-12.466l36.392-40.439c26.302-29.224 40.789-66.966 40.789-106.293v-32.742c0-14.603 11.88-26.483 26.483-26.483s26.483 11.88 26.483 26.483v36.267c0 52.819-19.569 103.431-55.1 142.508l-35.474 39.026a8.808 8.808 0 01-6.535 2.89z" fill="#58eba2"/><path d="M221.986 512a8.816 8.816 0 01-5.935-2.293 8.83 8.83 0 01-.59-12.474l29.931-32.922c38.487-42.345 59.686-97.173 59.686-154.388v-36.267c0-24.337-19.801-44.138-44.138-44.138s-44.138 19.801-44.138 44.138v32.742c0 34.948-12.875 68.5-36.258 94.483l-25.87 28.75c-3.254 3.629-8.845 3.914-12.466.655-3.625-3.258-3.918-8.845-.655-12.466l25.87-28.75a123.405 123.405 0 0031.724-82.673v-32.742c0-34.069 27.72-61.793 61.793-61.793s61.793 27.724 61.793 61.793v36.267c0 61.612-22.828 120.664-64.276 166.268l-29.935 32.922a8.815 8.815 0 01-6.536 2.888z" fill="#58eba2"/><path d="M269.762 511.939a8.8 8.8 0 01-5.931-2.293c-3.608-3.276-3.875-8.862-.599-12.474l8.28-9.112c44.414-48.853 68.875-112.12 68.875-178.138v-36.266c0-43.81-35.642-79.448-79.448-79.448s-79.448 35.638-79.448 79.448v32.742a105.77 105.77 0 01-27.194 70.862L131 403.148c-3.258 3.629-8.845 3.914-12.466.655-3.625-3.258-3.918-8.845-.655-12.466l23.297-25.888a88.147 88.147 0 0022.659-59.052v-32.742c0-53.543 43.561-97.103 97.103-97.103s97.103 43.561 97.103 97.103v36.267c0 70.422-26.091 137.906-73.465 190.017l-8.276 9.112a8.814 8.814 0 01-6.538 2.888z" fill="#58eba2"/><g fill="#58eba2"><path d="M362.843 432.552a8.829 8.829 0 01-3.25-.621c-4.53-1.793-6.75-6.931-4.952-11.457a299.65 299.65 0 0011.281-34.431c1.228-4.715 6.051-7.5 10.772-6.311 4.715 1.233 7.543 6.06 6.306 10.776a316.447 316.447 0 01-11.944 36.466 8.833 8.833 0 01-8.213 5.578zM100.765 379.586a8.795 8.795 0 01-5.901-2.268c-3.625-3.258-3.918-8.845-.655-12.466l20.719-23.026a52.87 52.87 0 0013.594-35.431 8.826 8.826 0 018.828-8.828 8.826 8.826 0 018.828 8.828 70.503 70.503 0 01-18.13 47.242l-20.719 23.026a8.785 8.785 0 01-6.564 2.923z"/></g><g fill="#58eba2"><path d="M381.636 361.103c-.405 0-.81-.025-1.216-.086a8.824 8.824 0 01-7.543-9.949 302.654 302.654 0 002.819-41.146v-36.267c0-32.457-13.897-63.561-38.121-85.336-3.625-3.258-3.923-8.845-.664-12.474 3.258-3.604 8.841-3.905 12.466-.664 27.948 25.121 43.975 61.017 43.975 98.474v36.267c0 14.535-1.004 29.19-2.983 43.561-.607 4.423-4.392 7.62-8.733 7.62zM137.352 282.483a8.826 8.826 0 01-8.828-8.828c0-65.422 48.798-121.768 113.504-131.069 4.806-.672 9.298 2.664 9.992 7.482.694 4.828-2.655 9.302-7.482 10.001-56.073 8.052-98.358 56.888-98.358 113.587a8.825 8.825 0 01-8.828 8.827z"/></g><path d="M313.873 170.819a8.88 8.88 0 01-3.789-.853 113.464 113.464 0 00-32.746-9.897c-4.823-.698-8.177-5.164-7.482-9.992a8.789 8.789 0 019.992-7.491 131.217 131.217 0 0137.823 11.431c4.405 2.103 6.272 7.371 4.177 11.767a8.82 8.82 0 01-7.975 5.035z" fill="#58eba2"/><g fill="#58eba2"><path d="M85.037 344.276a8.795 8.795 0 01-5.901-2.268c-3.625-3.258-3.918-8.845-.655-12.466l10.202-11.336a17.628 17.628 0 004.53-11.81v-32.742c0-42.879 16.233-83.715 45.711-114.974a8.816 8.816 0 0112.479-.371c3.548 3.345 3.711 8.931.366 12.474-26.375 27.982-40.9 64.518-40.9 102.871v32.742c0 8.742-3.22 17.129-9.065 23.62l-10.202 11.336a8.784 8.784 0 01-6.565 2.924zM419.835 318.75a8.826 8.826 0 01-8.828-8.828v-36.267c0-82.75-67.319-150.069-150.069-150.069-2.815 0-5.612.086-8.388.233-4.81.31-9.022-3.482-9.28-8.353a8.827 8.827 0 018.349-9.284c3.086-.163 6.194-.25 9.319-.25 92.483 0 167.724 75.242 167.724 167.724v36.267a8.824 8.824 0 01-8.827 8.827z"/></g><g fill="#58eba2"><path d="M170.451 151.939a8.813 8.813 0 01-7.254-3.785c-2.784-4-1.798-9.508 2.202-12.294 15.328-10.655 32.177-18.621 50.073-23.672 4.703-1.311 9.578 1.422 10.892 6.103 1.323 4.69-1.409 9.569-6.099 10.897a148.832 148.832 0 00-44.78 21.173 8.785 8.785 0 01-5.034 1.578z"/><path d="M66.938 273.655c-.138 0-.271 0-.405-.009-4.871-.215-8.642-4.345-8.423-9.216 4.884-108.681 93.978-193.81 202.828-193.81 9.737 0 19.543.698 29.142 2.078a8.835 8.835 0 017.478 10.001c-.698 4.828-5.194 8.163-9.996 7.482a186.655 186.655 0 00-26.624-1.906c-99.383 0-180.733 77.725-185.19 176.948-.211 4.733-4.12 8.432-8.81 8.432zM445.068 220.681a8.83 8.83 0 01-8.366-6.008c-8.306-24.69-21.517-47-39.258-66.311a8.834 8.834 0 01.526-12.474c3.599-3.31 9.176-3.06 12.474.526 19.426 21.146 33.892 45.578 42.991 72.621 1.556 4.621-.931 9.63-5.551 11.19a8.958 8.958 0 01-2.816.456z"/></g><g fill="#58eba2"><path d="M376.848 126.759a8.734 8.734 0 01-5.271-1.759 184.886 184.886 0 00-50.772-26.81c-4.612-1.578-7.073-6.603-5.495-11.215 1.578-4.612 6.591-7.043 11.211-5.492a202.183 202.183 0 0155.616 29.379 8.82 8.82 0 011.793 12.353 8.822 8.822 0 01-7.082 3.544zM80.141 141.241a8.786 8.786 0 01-5.44-1.879c-3.837-3-4.513-8.552-1.508-12.388 25.397-32.439 58.84-57.888 96.712-73.594 4.522-1.87 9.673.276 11.539 4.776s-.271 9.664-4.771 11.534c-35.073 14.543-66.047 38.121-89.574 68.163a8.819 8.819 0 01-6.958 3.388z"/></g><path d="M426.408 123.586a8.78 8.78 0 01-6.367-2.716c-42.06-43.785-98.564-67.905-159.103-67.905a221.248 221.248 0 00-50.871 5.913c-4.755 1.121-9.504-1.802-10.625-6.552-1.126-4.742 1.811-9.5 6.556-10.621a238.666 238.666 0 0154.941-6.396c65.388 0 126.418 26.044 171.837 73.336a8.823 8.823 0 01-6.368 14.941z" fill="#58eba2"/><path d="M384.525 48.301a8.757 8.757 0 01-4.12-1.026 258.74 258.74 0 00-25.047-11.586 8.828 8.828 0 01-4.94-11.466c1.806-4.526 6.944-6.75 11.466-4.931a272.478 272.478 0 0126.781 12.38 8.827 8.827 0 01-4.14 16.629z" fill="#58eba2"/><path d="M146.184 43.828a8.821 8.821 0 01-7.953-4.991c-2.121-4.388-.28-9.664 4.113-11.785C179.528 9.103 219.429 0 260.939 0c21.63 0 43.172 2.543 64.03 7.561 4.742 1.146 7.659 5.913 6.517 10.655-1.142 4.742-5.906 7.638-10.646 6.517-19.509-4.698-39.66-7.078-59.901-7.078-38.828 0-76.151 8.509-110.922 25.293a8.827 8.827 0 01-3.833.88z" fill="#58eba2"/></svg>
